<svg version="1.1" viewBox="0.0 0.0 956.7296587926509 598.4225721784777" fill="none" stroke="none" stroke-linecap="square" stroke-miterlimit="10" xmlns:xlink="http://www.w3.org/1999/xlink" xmlns="http://www.w3.org/2000/svg"><clipPath id="p.0"><path d="m0 0l956.7297 0l0 598.42255l-956.7297 0l0 -598.42255z" clip-rule="nonzero"/></clipPath><g clip-path="url(#p.0)"><path fill="#000000" fill-opacity="0.0" d="m0 0l956.7297 0l0 598.42255l-956.7297 0z" fill-rule="evenodd"/><path fill="#674ea7" d="m279.98425 376.92038l0 0c0 -11.297913 9.1658325 -20.456696 20.472443 -20.456696l0 0c5.4296265 0 10.636871 2.155243 14.476196 5.9916077c3.839325 3.8363953 5.9962463 9.039642 5.9962463 14.465088l0 0c0 11.297913 -9.1658325 20.456696 -20.472443 20.456696l0 0c-11.30661 0 -20.472443 -9.158783 -20.472443 -20.456696z" fill-rule="evenodd"/><path stroke="#674ea7" stroke-width="1.0" stroke-linejoin="round" stroke-linecap="butt" d="m279.98425 376.92038l0 0c0 -11.297913 9.1658325 -20.456696 20.472443 -20.456696l0 0c5.4296265 0 10.636871 2.155243 14.476196 5.9916077c3.839325 3.8363953 5.9962463 9.039642 5.9962463 14.465088l0 0c0 11.297913 -9.1658325 20.456696 -20.472443 20.456696l0 0c-11.30661 0 -20.472443 -9.158783 -20.472443 -20.456696z" fill-rule="evenodd"/><path fill="#674ea7" d="m320.92966 291.84305l0 0c0 -11.297913 9.165802 -20.456696 20.472443 -20.456696l0 0c5.4296265 0 10.636871 2.155243 14.476196 5.991638c3.839325 3.8363647 5.996216 9.039612 5.996216 14.465057l0 0c0 11.297913 -9.165802 20.456696 -20.472412 20.456696l0 0c-11.306641 0 -20.472443 -9.158783 -20.472443 -20.456696z" fill-rule="evenodd"/><path stroke="#674ea7" stroke-width="1.0" stroke-linejoin="round" stroke-linecap="butt" d="m320.92966 291.84305l0 0c0 -11.297913 9.165802 -20.456696 20.472443 -20.456696l0 0c5.4296265 0 10.636871 2.155243 14.476196 5.991638c3.839325 3.8363647 5.996216 9.039612 5.996216 14.465057l0 0c0 11.297913 -9.165802 20.456696 -20.472412 20.456696l0 0c-11.306641 0 -20.472443 -9.158783 -20.472443 -20.456696z" fill-rule="evenodd"/><path fill="#674ea7" d="m249.5595 201.6961l0 0c0 -11.297913 9.165817 -20.456696 20.472427 -20.456696l0 0c5.4296265 0 10.636902 2.1552582 14.476227 5.991638c3.839325 3.8363647 5.996216 9.039612 5.996216 14.465057l0 0c0 11.297928 -9.165802 20.456696 -20.472443 20.456696l0 0c-11.30661 0 -20.472427 -9.158768 -20.472427 -20.456696z" fill-rule="evenodd"/><path stroke="#674ea7" stroke-width="1.0" stroke-linejoin="round" stroke-linecap="butt" d="m249.5595 201.6961l0 0c0 -11.297913 9.165817 -20.456696 20.472427 -20.456696l0 0c5.4296265 0 10.636902 2.1552582 14.476227 5.991638c3.839325 3.8363647 5.996216 9.039612 5.996216 14.465057l0 0c0 11.297928 -9.165802 20.456696 -20.472443 20.456696l0 0c-11.30661 0 -20.472427 -9.158768 -20.472427 -20.456696z" fill-rule="evenodd"/><path fill="#674ea7" d="m338.78976 210.12486l0 0c0 -11.297928 9.1658325 -20.456696 20.472443 -20.456696l0 0c5.4296265 0 10.636871 2.1552582 14.476227 5.991623c3.839325 3.83638 5.996216 9.039612 5.996216 14.465073l0 0c0 11.297913 -9.165802 20.456696 -20.472443 20.456696l0 0c-11.30661 0 -20.472443 -9.158783 -20.472443 -20.456696z" fill-rule="evenodd"/><path stroke="#674ea7" stroke-width="1.0" stroke-linejoin="round" stroke-linecap="butt" d="m338.78976 210.12486l0 0c0 -11.297928 9.1658325 -20.456696 20.472443 -20.456696l0 0c5.4296265 0 10.636871 2.1552582 14.476227 5.991623c3.839325 3.83638 5.996216 9.039612 5.996216 14.465073l0 0c0 11.297913 -9.165802 20.456696 -20.472443 20.456696l0 0c-11.30661 0 -20.472443 -9.158783 -20.472443 -20.456696z" fill-rule="evenodd"/><path fill="#674ea7" d="m254.2944 316.6858l0 0c0 -11.297913 9.1658325 -20.456696 20.472443 -20.456696l0 0c5.4296265 0 10.636871 2.155243 14.476196 5.9916077c3.839325 3.8363953 5.9962463 9.039642 5.9962463 14.465088l0 0c0 11.297913 -9.1658325 20.456696 -20.472443 20.456696l0 0c-11.30661 0 -20.472443 -9.158783 -20.472443 -20.456696z" fill-rule="evenodd"/><path stroke="#674ea7" stroke-width="1.0" stroke-linejoin="round" stroke-linecap="butt" d="m254.2944 316.6858l0 0c0 -11.297913 9.1658325 -20.456696 20.472443 -20.456696l0 0c5.4296265 0 10.636871 2.155243 14.476196 5.9916077c3.839325 3.8363953 5.9962463 9.039642 5.9962463 14.465088l0 0c0 11.297913 -9.1658325 20.456696 -20.472443 20.456696l0 0c-11.30661 0 -20.472443 -9.158783 -20.472443 -20.456696z" fill-rule="evenodd"/><path fill="#674ea7" d="m361.87296 316.68512l0 0c0 -11.297913 9.165802 -20.456696 20.472443 -20.456696l0 0c5.4296265 0 10.636871 2.155243 14.476196 5.991638c3.839325 3.8363647 5.9962463 9.039612 5.9962463 14.465057l0 0c0 11.297913 -9.1658325 20.456696 -20.472443 20.456696l0 0c-11.306641 0 -20.472443 -9.158783 -20.472443 -20.456696z" fill-rule="evenodd"/><path stroke="#674ea7" stroke-width="1.0" stroke-linejoin="round" stroke-linecap="butt" d="m361.87296 316.68512l0 0c0 -11.297913 9.165802 -20.456696 20.472443 -20.456696l0 0c5.4296265 0 10.636871 2.155243 14.476196 5.991638c3.839325 3.8363647 5.9962463 9.039612 5.9962463 14.465057l0 0c0 11.297913 -9.1658325 20.456696 -20.472443 20.456696l0 0c-11.306641 0 -20.472443 -9.158783 -20.472443 -20.456696z" fill-rule="evenodd"/><path fill="#674ea7" d="m449.40366 349.00943l0 0c0 -11.297943 9.1658325 -20.456696 20.472443 -20.456696l0 0c5.4296265 0 10.636871 2.155243 14.476196 5.9916077c3.839325 3.8363953 5.9962463 9.039612 5.9962463 14.465088l0 0c0 11.297913 -9.1658325 20.456696 -20.472443 20.456696l0 0c-11.30661 0 -20.472443 -9.158783 -20.472443 -20.456696z" fill-rule="evenodd"/><path stroke="#674ea7" stroke-width="1.0" stroke-linejoin="round" stroke-linecap="butt" d="m449.40366 349.00943l0 0c0 -11.297943 9.1658325 -20.456696 20.472443 -20.456696l0 0c5.4296265 0 10.636871 2.155243 14.476196 5.9916077c3.839325 3.8363953 5.9962463 9.039612 5.9962463 14.465088l0 0c0 11.297913 -9.1658325 20.456696 -20.472443 20.456696l0 0c-11.30661 0 -20.472443 -9.158783 -20.472443 -20.456696z" fill-rule="evenodd"/><path fill="#674ea7" d="m428.0198 234.7945l0 0c0 -11.297913 9.1658325 -20.456696 20.472443 -20.456696l0 0c5.4296265 0 10.636871 2.1552582 14.476196 5.991638c3.839325 3.8363647 5.9962463 9.039612 5.9962463 14.465057l0 0c0 11.297928 -9.1658325 20.456696 -20.472443 20.456696l0 0c-11.30661 0 -20.472443 -9.158768 -20.472443 -20.456696z" fill-rule="evenodd"/><path stroke="#674ea7" stroke-width="1.0" stroke-linejoin="round" stroke-linecap="butt" d="m428.0198 234.7945l0 0c0 -11.297913 9.1658325 -20.456696 20.472443 -20.456696l0 0c5.4296265 0 10.636871 2.1552582 14.476196 5.991638c3.839325 3.8363647 5.9962463 9.039612 5.9962463 14.465057l0 0c0 11.297928 -9.1658325 20.456696 -20.472443 20.456696l0 0c-11.30661 0 -20.472443 -9.158768 -20.472443 -20.456696z" fill-rule="evenodd"/><path fill="#674ea7" d="m478.0621 283.58215l0 0c0 -11.297913 9.1658325 -20.456696 20.472443 -20.456696l0 0c5.4296265 0 10.636871 2.155243 14.476196 5.991638c3.8393555 3.8363647 5.996277 9.039612 5.996277 14.465057l0 0c0 11.297913 -9.1658325 20.456696 -20.472473 20.456696l0 0c-11.30661 0 -20.472443 -9.158783 -20.472443 -20.456696z" fill-rule="evenodd"/><path stroke="#674ea7" stroke-width="1.0" stroke-linejoin="round" stroke-linecap="butt" d="m478.0621 283.58215l0 0c0 -11.297913 9.1658325 -20.456696 20.472443 -20.456696l0 0c5.4296265 0 10.636871 2.155243 14.476196 5.991638c3.8393555 3.8363647 5.996277 9.039612 5.996277 14.465057l0 0c0 11.297913 -9.1658325 20.456696 -20.472473 20.456696l0 0c-11.30661 0 -20.472443 -9.158783 -20.472443 -20.456696z" fill-rule="evenodd"/><path fill="#674ea7" d="m521.82806 336.00708l0 0c0 -11.297943 9.1658325 -20.456696 20.472473 -20.456696l0 0c5.4296265 0 10.636841 2.155243 14.476196 5.9916077c3.8392944 3.8363953 5.996216 9.039612 5.996216 14.465088l0 0c0 11.297913 -9.1658325 20.456696 -20.472412 20.456696l0 0c-11.306641 0 -20.472473 -9.158783 -20.472473 -20.456696z" fill-rule="evenodd"/><path stroke="#674ea7" stroke-width="1.0" stroke-linejoin="round" stroke-linecap="butt" d="m521.82806 336.00708l0 0c0 -11.297943 9.1658325 -20.456696 20.472473 -20.456696l0 0c5.4296265 0 10.636841 2.155243 14.476196 5.9916077c3.8392944 3.8363953 5.996216 9.039612 5.996216 14.465088l0 0c0 11.297913 -9.1658325 20.456696 -20.472412 20.456696l0 0c-11.306641 0 -20.472473 -9.158783 -20.472473 -20.456696z" fill-rule="evenodd"/><path fill="#674ea7" d="m529.8686 261.9921l0 0c0 -11.297928 9.1658325 -20.456696 20.472473 -20.456696l0 0c5.4296265 0 10.636841 2.155243 14.476196 5.991623c3.8392944 3.83638 5.996216 9.039627 5.996216 14.465073l0 0c0 11.297913 -9.1658325 20.456696 -20.472412 20.456696l0 0c-11.306641 0 -20.472473 -9.158783 -20.472473 -20.456696z" fill-rule="evenodd"/><path stroke="#674ea7" stroke-width="1.0" stroke-linejoin="round" stroke-linecap="butt" d="m529.8686 261.9921l0 0c0 -11.297928 9.1658325 -20.456696 20.472473 -20.456696l0 0c5.4296265 0 10.636841 2.155243 14.476196 5.991623c3.8392944 3.83638 5.996216 9.039627 5.996216 14.465073l0 0c0 11.297913 -9.1658325 20.456696 -20.472412 20.456696l0 0c-11.306641 0 -20.472473 -9.158783 -20.472473 -20.456696z" fill-rule="evenodd"/><path fill="#674ea7" d="m411.92844 407.30167l0 0c0 -11.297913 9.1658325 -20.456696 20.472443 -20.456696l0 0c5.4296265 0 10.636871 2.155243 14.476227 5.991638c3.839325 3.8363647 5.996216 9.039612 5.996216 14.465057l0 0c0 11.297913 -9.165802 20.456696 -20.472443 20.456696l0 0c-11.30661 0 -20.472443 -9.158783 -20.472443 -20.456696z" fill-rule="evenodd"/><path stroke="#674ea7" stroke-width="1.0" stroke-linejoin="round" stroke-linecap="butt" d="m411.92844 407.30167l0 0c0 -11.297913 9.1658325 -20.456696 20.472443 -20.456696l0 0c5.4296265 0 10.636871 2.155243 14.476227 5.991638c3.839325 3.8363647 5.996216 9.039612 5.996216 14.465057l0 0c0 11.297913 -9.165802 20.456696 -20.472443 20.456696l0 0c-11.30661 0 -20.472443 -9.158783 -20.472443 -20.456696z" fill-rule="evenodd"/><path fill="#674ea7" d="m411.929 160.89305l0 0c0 -11.297928 9.1658325 -20.456696 20.472443 -20.456696l0 0c5.4296265 0 10.636871 2.155243 14.476196 5.991623c3.839325 3.83638 5.9962463 9.039612 5.9962463 14.465073l0 0c0 11.297913 -9.1658325 20.45668 -20.472443 20.45668l0 0c-11.30661 0 -20.472443 -9.158768 -20.472443 -20.45668z" fill-rule="evenodd"/><path stroke="#674ea7" stroke-width="1.0" stroke-linejoin="round" stroke-linecap="butt" d="m411.929 160.89305l0 0c0 -11.297928 9.1658325 -20.456696 20.472443 -20.456696l0 0c5.4296265 0 10.636871 2.155243 14.476196 5.991623c3.839325 3.83638 5.9962463 9.039612 5.9962463 14.465073l0 0c0 11.297913 -9.1658325 20.45668 -20.472443 20.45668l0 0c-11.30661 0 -20.472443 -9.158768 -20.472443 -20.45668z" fill-rule="evenodd"/><path fill="#674ea7" d="m521.8265 187.97551l0 0c0 -11.297928 9.1658325 -20.456696 20.472412 -20.456696l0 0c5.4296265 0 10.636902 2.155243 14.476196 5.991623c3.8393555 3.83638 5.996277 9.039612 5.996277 14.465073l0 0c0 11.297913 -9.1658325 20.45668 -20.472473 20.45668l0 0c-11.30658 0 -20.472412 -9.158768 -20.472412 -20.45668z" fill-rule="evenodd"/><path stroke="#674ea7" stroke-width="1.0" stroke-linejoin="round" stroke-linecap="butt" d="m521.8265 187.97551l0 0c0 -11.297928 9.1658325 -20.456696 20.472412 -20.456696l0 0c5.4296265 0 10.636902 2.155243 14.476196 5.991623c3.8393555 3.83638 5.996277 9.039612 5.996277 14.465073l0 0c0 11.297913 -9.1658325 20.45668 -20.472473 20.45668l0 0c-11.30658 0 -20.472412 -9.158768 -20.472412 -20.45668z" fill-rule="evenodd"/><path fill="#674ea7" d="m615.9803 234.79446l0 0c0 -11.297913 9.1658325 -20.45668 20.472473 -20.45668l0 0c5.4296265 0 10.636841 2.155243 14.476196 5.991623c3.8392944 3.83638 5.996216 9.039612 5.996216 14.465057l0 0c0 11.297928 -9.1658325 20.456696 -20.472412 20.456696l0 0c-11.306641 0 -20.472473 -9.158768 -20.472473 -20.456696z" fill-rule="evenodd"/><path stroke="#674ea7" stroke-width="1.0" stroke-linejoin="round" stroke-linecap="butt" d="m615.9803 234.79446l0 0c0 -11.297913 9.1658325 -20.45668 20.472473 -20.45668l0 0c5.4296265 0 10.636841 2.155243 14.476196 5.991623c3.8392944 3.83638 5.996216 9.039612 5.996216 14.465057l0 0c0 11.297928 -9.1658325 20.456696 -20.472412 20.456696l0 0c-11.306641 0 -20.472473 -9.158768 -20.472473 -20.456696z" fill-rule="evenodd"/><path fill="#674ea7" d="m594.2507 316.68423l0 0c0 -11.297913 9.1657715 -20.456696 20.472412 -20.456696l0 0c5.4296265 0 10.636902 2.155243 14.476196 5.991638c3.8393555 3.8363647 5.996277 9.039612 5.996277 14.465057l0 0c0 11.297913 -9.1658325 20.456696 -20.472473 20.456696l0 0c-11.306641 0 -20.472412 -9.158783 -20.472412 -20.456696z" fill-rule="evenodd"/><path stroke="#674ea7" stroke-width="1.0" stroke-linejoin="round" stroke-linecap="butt" d="m594.2507 316.68423l0 0c0 -11.297913 9.1657715 -20.456696 20.472412 -20.456696l0 0c5.4296265 0 10.636902 2.155243 14.476196 5.991638c3.8393555 3.8363647 5.996277 9.039612 5.996277 14.465057l0 0c0 11.297913 -9.1658325 20.456696 -20.472473 20.456696l0 0c-11.306641 0 -20.472412 -9.158783 -20.472412 -20.456696z" fill-rule="evenodd"/><path fill="#85200c" d="m79.11154 424.63174l0 0c0 -11.297913 9.165825 -20.456696 20.472435 -20.456696l0 0c5.429634 0 10.636879 2.155243 14.476204 5.991638c3.839325 3.8363647 5.9962387 9.039612 5.9962387 14.465057l0 0c0 11.297913 -9.165825 20.456696 -20.472443 20.456696l0 0c-11.30661 0 -20.472435 -9.158783 -20.472435 -20.456696z" fill-rule="evenodd"/><path stroke="#85200c" stroke-width="1.0" stroke-linejoin="round" stroke-linecap="butt" d="m79.11154 424.63174l0 0c0 -11.297913 9.165825 -20.456696 20.472435 -20.456696l0 0c5.429634 0 10.636879 2.155243 14.476204 5.991638c3.839325 3.8363647 5.9962387 9.039612 5.9962387 14.465057l0 0c0 11.297913 -9.165825 20.456696 -20.472443 20.456696l0 0c-11.30661 0 -20.472435 -9.158783 -20.472435 -20.456696z" fill-rule="evenodd"/><path fill="#85200c" d="m79.11154 104.63437l0 0c0 -11.29792 9.165825 -20.456696 20.472435 -20.456696l0 0c5.429634 0 10.636879 2.1552505 14.476204 5.9916306c3.839325 3.8363724 5.9962387 9.039612 5.9962387 14.465065l0 0c0 11.29792 -9.165825 20.456688 -20.472443 20.456688l0 0c-11.30661 0 -20.472435 -9.158768 -20.472435 -20.456688z" fill-rule="evenodd"/><path stroke="#85200c" stroke-width="1.0" stroke-linejoin="round" stroke-linecap="butt" d="m79.11154 104.63437l0 0c0 -11.29792 9.165825 -20.456696 20.472435 -20.456696l0 0c5.429634 0 10.636879 2.1552505 14.476204 5.9916306c3.839325 3.8363724 5.9962387 9.039612 5.9962387 14.465065l0 0c0 11.29792 -9.165825 20.456688 -20.472443 20.456688l0 0c-11.30661 0 -20.472435 -9.158768 -20.472435 -20.456688z" fill-rule="evenodd"/><path fill="#85200c" d="m761.5289 88.25904l0 0c0 -11.29792 9.1658325 -20.456696 20.472412 -20.456696l0 0c5.4296265 0 10.636902 2.1552505 14.476196 5.9916306c3.8393555 3.8363724 5.996277 9.039612 5.996277 14.465065l0 0c0 11.29792 -9.1658325 20.456688 -20.472473 20.456688l0 0c-11.30658 0 -20.472412 -9.158768 -20.472412 -20.456688z" fill-rule="evenodd"/><path stroke="#85200c" stroke-width="1.0" stroke-linejoin="round" stroke-linecap="butt" d="m761.5289 88.25904l0 0c0 -11.29792 9.1658325 -20.456696 20.472412 -20.456696l0 0c5.4296265 0 10.636902 2.1552505 14.476196 5.9916306c3.8393555 3.8363724 5.996277 9.039612 5.996277 14.465065l0 0c0 11.29792 -9.1658325 20.456688 -20.472473 20.456688l0 0c-11.30658 0 -20.472412 -9.158768 -20.472412 -20.456688z" fill-rule="evenodd"/><path fill="#85200c" d="m873.5315 63.72098l0 0c0 -11.29792 9.1658325 -20.456696 20.472412 -20.456696l0 0c5.4296265 0 10.636902 2.1552544 14.476196 5.9916267c3.8393555 3.8363762 5.996277 9.039616 5.996277 14.465069l0 0c0 11.297916 -9.1658325 20.456692 -20.472473 20.456692l0 0c-11.30658 0 -20.472412 -9.158775 -20.472412 -20.456692z" fill-rule="evenodd"/><path stroke="#85200c" stroke-width="1.0" stroke-linejoin="round" stroke-linecap="butt" d="m873.5315 63.72098l0 0c0 -11.29792 9.1658325 -20.456696 20.472412 -20.456696l0 0c5.4296265 0 10.636902 2.1552544 14.476196 5.9916267c3.8393555 3.8363762 5.996277 9.039616 5.996277 14.465069l0 0c0 11.297916 -9.1658325 20.456692 -20.472473 20.456692l0 0c-11.30658 0 -20.472412 -9.158775 -20.472412 -20.456692z" fill-rule="evenodd"/><path fill="#85200c" d="m593.71783 538.4926l0 0c0 -11.297913 9.1658325 -20.456665 20.472473 -20.456665l0 0c5.4296265 0 10.636841 2.1552734 14.476196 5.991638c3.8392944 3.8363647 5.996216 9.039612 5.996216 14.465027l0 0c0 11.297913 -9.1658325 20.456726 -20.472412 20.456726l0 0c-11.306641 0 -20.472473 -9.158813 -20.472473 -20.456726z" fill-rule="evenodd"/><path stroke="#85200c" stroke-width="1.0" stroke-linejoin="round" stroke-linecap="butt" d="m593.71783 538.4926l0 0c0 -11.297913 9.1658325 -20.456665 20.472473 -20.456665l0 0c5.4296265 0 10.636841 2.1552734 14.476196 5.991638c3.8392944 3.8363647 5.996216 9.039612 5.996216 14.465027l0 0c0 11.297913 -9.1658325 20.456726 -20.472412 20.456726l0 0c-11.306641 0 -20.472473 -9.158813 -20.472473 -20.456726z" fill-rule="evenodd"/><path fill="#000000" fill-opacity="0.0" d="m65.937004 125.091866l84.850395 0l0 33.07087l-84.850395 0z" fill-rule="evenodd"/><path fill="#85200c" d="m75.687004 147.0431q0 -1.28125 0.625 -2.46875q0.625 -1.203125 1.78125 -1.828125q1.15625 -0.625 2.578125 -0.625q2.1875 0 3.59375 1.421875q1.40625 1.421875 1.40625 3.609375q0 2.1875 -1.421875 3.640625q-1.421875 1.4375 -3.5625 1.4375q-1.328125 0 -2.546875 -0.59375q-1.203125 -0.609375 -1.828125 -1.765625q-0.625 -1.171875 -0.625 -2.828125zm2.625 0.125q0 1.453125 0.671875 2.21875q0.6875 0.75 1.6875 0.75q1.0 0 1.671875 -0.75q0.6875 -0.765625 0.6875 -2.234375q0 -1.421875 -0.6875 -2.1875q-0.671875 -0.765625 -1.671875 -0.765625q-1.0 0 -1.6875 0.765625q-0.671875 0.765625 -0.671875 2.203125zm15.724106 4.84375l0 -1.453125q-0.53125 0.78125 -1.390625 1.234375q-0.859375 0.4375 -1.8125 0.4375q-0.96875 0 -1.75 -0.421875q-0.765625 -0.4375 -1.125 -1.203125q-0.34375 -0.78125 -0.34375 -2.140625l0 -6.125l2.5625 0l0 4.4375q0 2.046875 0.140625 2.515625q0.140625 0.453125 0.515625 0.71875q0.375 0.265625 0.953125 0.265625q0.65625 0 1.171875 -0.359375q0.515625 -0.359375 0.703125 -0.890625q0.203125 -0.53125 0.203125 -2.609375l0 -4.078125l2.546875 0l0 9.671875l-2.375 0zm9.474106 -9.671875l0 2.03125l-1.75 0l0 3.90625q0 1.1875 0.046875 1.390625q0.046875 0.1875 0.21875 0.3125q0.1875 0.125 0.4375 0.125q0.359375 0 1.03125 -0.25l0.21875 2.0q-0.890625 0.375 -2.015625 0.375q-0.703125 0 -1.265625 -0.234375q-0.546875 -0.234375 -0.8125 -0.59375q-0.25 -0.375 -0.34375 -1.0q-0.09375 -0.453125 -0.09375 -1.8125l0 -4.21875l-1.171875 0l0 -2.03125l1.171875 0l0 -1.921875l2.578125 -1.5l0 3.421875l1.75 0zm1.775177 9.671875l0 -13.359375l2.5625 0l0 13.359375l-2.5625 0zm5.183304 -10.984375l0 -2.375l2.5625 0l0 2.375l-2.5625 0zm0 10.984375l0 -9.671875l2.5625 0l0 9.671875l-2.5625 0zm10.777054 -3.078125l2.546875 0.421875q-0.484375 1.40625 -1.546875 2.140625q-1.0625 0.734375 -2.65625 0.734375q-2.515625 0 -3.734375 -1.65625q-0.953125 -1.3125 -0.953125 -3.328125q0 -2.40625 1.25 -3.765625q1.265625 -1.359375 3.1875 -1.359375q2.15625 0 3.40625 1.421875q1.25 1.421875 1.1875 4.375l-6.40625 0q0.03125 1.140625 0.609375 1.78125q0.59375 0.625 1.484375 0.625q0.59375 0 1.0 -0.328125q0.421875 -0.328125 0.625 -1.0625zm0.15625 -2.59375q-0.03125 -1.109375 -0.578125 -1.6875q-0.546875 -0.578125 -1.328125 -0.578125q-0.84375 0 -1.390625 0.609375q-0.546875 0.609375 -0.53125 1.65625l3.828125 0zm7.07885 5.671875l-2.5625076 0l0 -9.671875l2.3750076 0l0 1.375q0.609375 -0.984375 1.09375 -1.28125q0.484375 -0.3125 1.109375 -0.3125q0.875 0 1.6875 0.484375l-0.796875 2.234375q-0.640625 -0.421875 -1.203125 -0.421875q-0.53125 0 -0.90625 0.296875q-0.375 0.296875 -0.59375 1.078125q-0.203125 0.765625 -0.203125 3.234375l0 2.984375z" fill-rule="nonzero"/><path fill="#000000" fill-opacity="0.0" d="m71.88976 438.021l84.850395 0l0 33.07086l-84.850395 0z" fill-rule="evenodd"/><path fill="#85200c" d="m81.63976 459.97226q0 -1.28125 0.625 -2.46875q0.625 -1.203125 1.78125 -1.828125q1.15625 -0.625 2.578125 -0.625q2.1875 0 3.59375 1.421875q1.40625 1.421875 1.40625 3.609375q0 2.1875 -1.421875 3.640625q-1.421875 1.4375 -3.5625 1.4375q-1.328125 0 -2.546875 -0.59375q-1.203125 -0.609375 -1.828125 -1.765625q-0.625 -1.171875 -0.625 -2.828125zm2.625 0.125q0 1.453125 0.671875 2.21875q0.6875 0.75 1.6875 0.75q1.0 0 1.671875 -0.75q0.6875 -0.765625 0.6875 -2.234375q0 -1.421875 -0.6875 -2.1875q-0.671875 -0.765625 -1.671875 -0.765625q-1.0 0 -1.6875 0.765625q-0.671875 0.765625 -0.671875 2.203125zm15.724106 4.84375l0 -1.453125q-0.53125 0.78125 -1.390625 1.234375q-0.859375 0.4375 -1.8125 0.4375q-0.96875 0 -1.75 -0.421875q-0.765625 -0.4375 -1.125 -1.203125q-0.34375 -0.78125 -0.34375 -2.140625l0 -6.125l2.5625 0l0 4.4375q0 2.046875 0.140625 2.515625q0.140625 0.453125 0.515625 0.71875q0.375 0.265625 0.953125 0.265625q0.65625 0 1.171875 -0.359375q0.515625 -0.359375 0.703125 -0.890625q0.203125 -0.53125 0.203125 -2.609375l0 -4.078125l2.546875 0l0 9.671875l-2.375 0zm9.474106 -9.671875l0 2.03125l-1.75 0l0 3.90625q0 1.1875 0.046875 1.390625q0.046875 0.1875 0.21875 0.3125q0.1875 0.125 0.4375 0.125q0.359375 0 1.03125 -0.25l0.21875 2.0q-0.890625 0.375 -2.015625 0.375q-0.703125 0 -1.265625 -0.234375q-0.546875 -0.234375 -0.8125 -0.59375q-0.25 -0.375 -0.34375 -1.0q-0.09375 -0.453125 -0.09375 -1.8125l0 -4.21875l-1.171875 0l0 -2.03125l1.171875 0l0 -1.921875l2.578125 -1.5l0 3.421875l1.75 0zm1.775177 9.671875l0 -13.359375l2.5625 0l0 13.359375l-2.5625 0zm5.183304 -10.984375l0 -2.375l2.5625 0l0 2.375l-2.5625 0zm0 10.984375l0 -9.671875l2.5625 0l0 9.671875l-2.5625 0zm10.777054 -3.078125l2.5468826 0.421875q-0.484375 1.40625 -1.546875 2.140625q-1.0625076 0.734375 -2.6562576 0.734375q-2.515625 0 -3.734375 -1.65625q-0.953125 -1.3125 -0.953125 -3.328125q0 -2.40625 1.25 -3.765625q1.265625 -1.359375 3.1875 -1.359375q2.15625 0 3.4062576 1.421875q1.25 1.421875 1.1875 4.375l-6.4062576 0q0.03125 1.140625 0.609375 1.78125q0.59375 0.625 1.484375 0.625q0.59375 0 1.0 -0.328125q0.421875 -0.328125 0.625 -1.0625zm0.15625 -2.59375q-0.03125 -1.109375 -0.578125 -1.6875q-0.546875 -0.578125 -1.328125 -0.578125q-0.84375 0 -1.390625 0.609375q-0.546875 0.609375 -0.53125 1.65625l3.828125 0zm7.07885 5.671875l-2.5625 0l0 -9.671875l2.375 0l0 1.375q0.609375 -0.984375 1.09375 -1.28125q0.484375 -0.3125 1.109375 -0.3125q0.875 0 1.6875 0.484375l-0.796875 2.234375q-0.640625 -0.421875 -1.203125 -0.421875q-0.53125 0 -0.90625 0.296875q-0.375 0.296875 -0.59375 1.078125q-0.203125 0.765625 -0.203125 3.234375l0 2.984375z" fill-rule="nonzero"/><path fill="#000000" fill-opacity="0.0" d="m581.2861 550.021l84.8504 0l0 33.07086l-84.8504 0z" fill-rule="evenodd"/><path fill="#85200c" d="m591.0361 571.9722q0 -1.28125 0.625 -2.46875q0.625 -1.203125 1.78125 -1.828125q1.15625 -0.625 2.578125 -0.625q2.1875 0 3.59375 1.421875q1.40625 1.421875 1.40625 3.609375q0 2.1875 -1.421875 3.640625q-1.421875 1.4375 -3.5625 1.4375q-1.328125 0 -2.546875 -0.59375q-1.203125 -0.609375 -1.828125 -1.765625q-0.625 -1.171875 -0.625 -2.828125zm2.625 0.125q0 1.453125 0.671875 2.21875q0.6875 0.75 1.6875 0.75q1.0 0 1.671875 -0.75q0.6875 -0.765625 0.6875 -2.234375q0 -1.421875 -0.6875 -2.1875q-0.671875 -0.765625 -1.671875 -0.765625q-1.0 0 -1.6875 0.765625q-0.671875 0.765625 -0.671875 2.203125zm15.724121 4.84375l0 -1.453125q-0.53125 0.78125 -1.390625 1.234375q-0.859375 0.4375 -1.8125 0.4375q-0.96875 0 -1.75 -0.421875q-0.765625 -0.4375 -1.125 -1.203125q-0.34375 -0.78125 -0.34375 -2.140625l0 -6.125l2.5625 0l0 4.4375q0 2.046875 0.140625 2.515625q0.140625 0.453125 0.515625 0.71875q0.375 0.265625 0.953125 0.265625q0.65625 0 1.171875 -0.359375q0.515625 -0.359375 0.703125 -0.890625q0.203125 -0.53125 0.203125 -2.609375l0 -4.078125l2.546875 0l0 9.671875l-2.375 0zm9.474121 -9.671875l0 2.03125l-1.75 0l0 3.90625q0 1.1875 0.046875 1.390625q0.046875 0.1875 0.21875 0.3125q0.1875 0.125 0.4375 0.125q0.359375 0 1.03125 -0.25l0.21875 2.0q-0.890625 0.375 -2.015625 0.375q-0.703125 0 -1.265625 -0.234375q-0.546875 -0.234375 -0.8125 -0.59375q-0.25 -0.375 -0.34375 -1.0q-0.09375 -0.453125 -0.09375 -1.8125l0 -4.21875l-1.171875 0l0 -2.03125l1.171875 0l0 -1.921875l2.578125 -1.5l0 3.421875l1.75 0zm1.7751465 9.671875l0 -13.359375l2.5625 0l0 13.359375l-2.5625 0zm5.1833496 -10.984375l0 -2.375l2.5625 0l0 2.375l-2.5625 0zm0 10.984375l0 -9.671875l2.5625 0l0 9.671875l-2.5625 0zm10.777039 -3.078125l2.546875 0.421875q-0.484375 1.40625 -1.546875 2.140625q-1.0625 0.734375 -2.65625 0.734375q-2.515625 0 -3.734375 -1.65625q-0.953125 -1.3125 -0.953125 -3.328125q0 -2.40625 1.25 -3.765625q1.265625 -1.359375 3.1875 -1.359375q2.15625 0 3.40625 1.421875q1.25 1.421875 1.1875 4.375l-6.40625 0q0.03125 1.140625 0.609375 1.78125q0.59375 0.625 1.484375 0.625q0.59375 0 1.0 -0.328125q0.421875 -0.328125 0.625 -1.0625zm0.15625 -2.59375q-0.03125 -1.109375 -0.578125 -1.6875q-0.546875 -0.578125 -1.328125 -0.578125q-0.84375 0 -1.390625 0.609375q-0.546875 0.609375 -0.53125 1.65625l3.828125 0zm7.0788574 5.671875l-2.5625 0l0 -9.671875l2.375 0l0 1.375q0.609375 -0.984375 1.09375 -1.28125q0.484375 -0.3125 1.109375 -0.3125q0.875 0 1.6875 0.484375l-0.796875 2.234375q-0.640625 -0.421875 -1.203125 -0.421875q-0.53125 0 -0.90625 0.296875q-0.375 0.296875 -0.59375 1.078125q-0.203125 0.765625 -0.203125 3.234375l0 2.984375z" fill-rule="nonzero"/><path fill="#000000" fill-opacity="0.0" d="m747.98425 99.41732l84.8504 0l0 33.07087l-84.8504 0z" fill-rule="evenodd"/><path fill="#85200c" d="m757.73425 121.36857q0 -1.28125 0.625 -2.46875q0.625 -1.203125 1.78125 -1.828125q1.15625 -0.625 2.578125 -0.625q2.1875 0 3.59375 1.421875q1.40625 1.421875 1.40625 3.609375q0 2.1875 -1.421875 3.640625q-1.421875 1.4375 -3.5625 1.4375q-1.328125 0 -2.546875 -0.59375q-1.203125 -0.609375 -1.828125 -1.765625q-0.625 -1.171875 -0.625 -2.828125zm2.625 0.125q0 1.453125 0.671875 2.21875q0.6875 0.75 1.6875 0.75q1.0 0 1.671875 -0.75q0.6875 -0.765625 0.6875 -2.234375q0 -1.421875 -0.6875 -2.1875q-0.671875 -0.765625 -1.671875 -0.765625q-1.0 0 -1.6875 0.765625q-0.671875 0.765625 -0.671875 2.203125zm15.724121 4.84375l0 -1.453125q-0.53125 0.78125 -1.390625 1.234375q-0.859375 0.4375 -1.8125 0.4375q-0.96875 0 -1.75 -0.421875q-0.765625 -0.4375 -1.125 -1.203125q-0.34375 -0.78125 -0.34375 -2.140625l0 -6.125l2.5625 0l0 4.4375q0 2.046875 0.140625 2.515625q0.140625 0.453125 0.515625 0.71875q0.375 0.265625 0.953125 0.265625q0.65625 0 1.171875 -0.359375q0.515625 -0.359375 0.703125 -0.890625q0.203125 -0.53125 0.203125 -2.609375l0 -4.078125l2.546875 0l0 9.671875l-2.375 0zm9.47406 -9.671875l0 2.03125l-1.75 0l0 3.90625q0 1.1875 0.046875 1.390625q0.046875 0.1875 0.21875 0.3125q0.1875 0.125 0.4375 0.125q0.359375 0 1.03125 -0.25l0.21875 2.0q-0.890625 0.375 -2.015625 0.375q-0.703125 0 -1.265625 -0.234375q-0.546875 -0.234375 -0.8125 -0.59375q-0.25 -0.375 -0.34375 -1.0q-0.09375 -0.453125 -0.09375 -1.8125l0 -4.21875l-1.171875 0l0 -2.03125l1.171875 0l0 -1.921875l2.578125 -1.5l0 3.421875l1.75 0zm1.7752075 9.671875l0 -13.359375l2.5625 0l0 13.359375l-2.5625 0zm5.1832886 -10.984375l0 -2.375l2.5625 0l0 2.375l-2.5625 0zm0 10.984375l0 -9.671875l2.5625 0l0 9.671875l-2.5625 0zm10.777039 -3.078125l2.546875 0.421875q-0.484375 1.40625 -1.546875 2.140625q-1.0625 0.734375 -2.65625 0.734375q-2.515625 0 -3.734375 -1.65625q-0.953125 -1.3125 -0.953125 -3.328125q0 -2.40625 1.25 -3.765625q1.265625 -1.359375 3.1875 -1.359375q2.15625 0 3.40625 1.421875q1.25 1.421875 1.1875 4.375l-6.40625 0q0.03125 1.140625 0.609375 1.78125q0.59375 0.625 1.484375 0.625q0.59375 0 1.0 -0.328125q0.421875 -0.328125 0.625 -1.0625zm0.15625 -2.59375q-0.03125 -1.109375 -0.578125 -1.6875q-0.546875 -0.578125 -1.328125 -0.578125q-0.84375 0 -1.390625 0.609375q-0.546875 0.609375 -0.53125 1.65625l3.828125 0zm7.0788574 5.671875l-2.5625 0l0 -9.671875l2.375 0l0 1.375q0.609375 -0.984375 1.09375 -1.28125q0.484375 -0.3125 1.109375 -0.3125q0.875 0 1.6875 0.484375l-0.796875 2.234375q-0.640625 -0.421875 -1.203125 -0.421875q-0.53125 0 -0.90625 0.296875q-0.375 0.296875 -0.59375 1.078125q-0.203125 0.765625 -0.203125 3.234375l0 2.984375z" fill-rule="nonzero"/><path fill="#000000" fill-opacity="0.0" d="m862.21783 75.64567l84.8504 0l0 33.07087l-84.8504 0z" fill-rule="evenodd"/><path fill="#85200c" d="m871.96783 97.59692q0 -1.28125 0.625 -2.46875q0.625 -1.203125 1.78125 -1.828125q1.15625 -0.625 2.578125 -0.625q2.1875 0 3.59375 1.421875q1.40625 1.421875 1.40625 3.609375q0 2.1875 -1.421875 3.640625q-1.421875 1.4375 -3.5625 1.4375q-1.328125 0 -2.546875 -0.59375q-1.203125 -0.609375 -1.828125 -1.765625q-0.625 -1.171875 -0.625 -2.828125zm2.625 0.125q0 1.453125 0.671875 2.21875q0.6875 0.75 1.6875 0.75q1.0 0 1.671875 -0.75q0.6875 -0.765625 0.6875 -2.234375q0 -1.421875 -0.6875 -2.1875q-0.671875 -0.765625 -1.671875 -0.765625q-1.0 0 -1.6875 0.765625q-0.671875 0.765625 -0.671875 2.203125zm15.724121 4.84375l0 -1.453125q-0.53125 0.78125 -1.390625 1.234375q-0.859375 0.4375 -1.8125 0.4375q-0.96875 0 -1.75 -0.421875q-0.765625 -0.4375 -1.125 -1.203125q-0.34375 -0.78125 -0.34375 -2.140625l0 -6.125l2.5625 0l0 4.4375q0 2.046875 0.140625 2.515625q0.140625 0.453125 0.515625 0.71875q0.375 0.265625 0.953125 0.265625q0.65625 0 1.171875 -0.359375q0.515625 -0.359375 0.703125 -0.890625q0.203125 -0.53125 0.203125 -2.609375l0 -4.078125l2.546875 0l0 9.671875l-2.375 0zm9.474121 -9.671875l0 2.03125l-1.75 0l0 3.90625q0 1.1875 0.046875 1.390625q0.046875 0.1875 0.21875 0.3125q0.1875 0.125 0.4375 0.125q0.359375 0 1.03125 -0.25l0.21875 2.0q-0.890625 0.375 -2.015625 0.375q-0.703125 0 -1.265625 -0.234375q-0.546875 -0.234375 -0.8125 -0.59375q-0.25 -0.375 -0.34375 -1.0q-0.09375 -0.453125 -0.09375 -1.8125l0 -4.21875l-1.171875 0l0 -2.03125l1.171875 0l0 -1.921875l2.578125 -1.5l0 3.421875l1.75 0zm1.7751465 9.671875l0 -13.359375l2.5625 0l0 13.359375l-2.5625 0zm5.1832886 -10.984375l0 -2.375l2.5625 0l0 2.375l-2.5625 0zm0 10.984375l0 -9.671875l2.5625 0l0 9.671875l-2.5625 0zm10.7771 -3.078125l2.546875 0.421875q-0.484375 1.40625 -1.546875 2.140625q-1.0625 0.734375 -2.65625 0.734375q-2.515625 0 -3.734375 -1.65625q-0.953125 -1.3125 -0.953125 -3.328125q0 -2.40625 1.25 -3.765625q1.265625 -1.359375 3.1875 -1.359375q2.15625 0 3.40625 1.421875q1.25 1.421875 1.1875 4.375l-6.40625 0q0.03125 1.140625 0.609375 1.78125q0.59375 0.625 1.484375 0.625q0.59375 0 1.0 -0.328125q0.421875 -0.328125 0.625 -1.0625zm0.15625 -2.59375q-0.03125 -1.109375 -0.578125 -1.6875q-0.546875 -0.578125 -1.328125 -0.578125q-0.84375 0 -1.390625 0.609375q-0.546875 0.609375 -0.53125 1.65625l3.828125 0zm7.0787964 5.671875l-2.5625 0l0 -9.671875l2.375 0l0 1.375q0.609375 -0.984375 1.09375 -1.28125q0.484375 -0.3125 1.109375 -0.3125q0.875 0 1.6875 0.484375l-0.796875 2.234375q-0.640625 -0.421875 -1.203125 -0.421875q-0.53125 0 -0.90625 0.296875q-0.375 0.296875 -0.59375 1.078125q-0.203125 0.765625 -0.203125 3.234375l0 2.984375z" fill-rule="nonzero"/><path fill="#274e13" d="m419.96762 284.0966l0 0c0 -11.297913 9.1658325 -20.456696 20.472443 -20.456696l0 0c5.4296265 0 10.636871 2.155243 14.476196 5.991638c3.839325 3.8363647 5.9962463 9.039612 5.9962463 14.465057l0 0c0 11.297913 -9.1658325 20.456696 -20.472443 20.456696l0 0c-11.30661 0 -20.472443 -9.158783 -20.472443 -20.456696z" fill-rule="evenodd"/><path stroke="#274e13" stroke-width="1.0" stroke-linejoin="round" stroke-linecap="butt" d="m419.96762 284.0966l0 0c0 -11.297913 9.1658325 -20.456696 20.472443 -20.456696l0 0c5.4296265 0 10.636871 2.155243 14.476196 5.991638c3.839325 3.8363647 5.9962463 9.039612 5.9962463 14.465057l0 0c0 11.297913 -9.1658325 20.456696 -20.472443 20.456696l0 0c-11.30661 0 -20.472443 -9.158783 -20.472443 -20.456696z" fill-rule="evenodd"/><path fill="#000000" fill-opacity="0.0" d="m271.10236 425.69815l395.02362 0l0 45.385834l-395.02362 0z" fill-rule="evenodd"/><path fill="#274e13" d="m285.71173 457.73816l0 -14.28125l-5.09375 0l0 -2.90625l13.65625 0l0 2.90625l-5.09375 0l0 14.28125l-3.46875 0zm8.238281 -6.40625q0 -1.640625 0.796875 -3.171875q0.8125 -1.53125 2.296875 -2.34375q1.484375 -0.8125 3.3125 -0.8125q2.828125 0 4.625 1.84375q1.8125 1.828125 1.8125 4.625q0 2.828125 -1.828125 4.6875q-1.828125 1.859375 -4.59375 1.859375q-1.703125 0 -3.265625 -0.765625q-1.546875 -0.78125 -2.359375 -2.265625q-0.796875 -1.5 -0.796875 -3.65625zm3.375 0.1875q0 1.84375 0.875 2.828125q0.875 0.984375 2.171875 0.984375q1.28125 0 2.15625 -0.984375q0.875 -0.984375 0.875 -2.859375q0 -1.828125 -0.875 -2.8125q-0.875 -0.984375 -2.15625 -0.984375q-1.296875 0 -2.171875 0.984375q-0.875 0.984375 -0.875 2.84375zm11.941406 -6.234375l3.078125 0l0 1.828125q0.59375 -0.9375 1.609375 -1.515625q1.03125 -0.59375 2.265625 -0.59375q2.171875 0 3.671875 1.703125q1.515625 1.703125 1.515625 4.734375q0 3.125 -1.53125 4.859375q-1.515625 1.71875 -3.671875 1.71875q-1.03125 0 -1.875 -0.40625q-0.84375 -0.421875 -1.765625 -1.40625l0 6.265625l-3.296875 0l0 -17.1875zm3.265625 6.015625q0 2.09375 0.828125 3.109375q0.828125 1.0 2.03125 1.0q1.140625 0 1.90625 -0.921875q0.765625 -0.921875 0.765625 -3.015625q0 -1.96875 -0.796875 -2.90625q-0.78125 -0.953125 -1.9375 -0.953125q-1.203125 0 -2.0 0.9375q-0.796875 0.921875 -0.796875 2.75zm11.488281 -7.703125l0 -3.046875l3.296875 0l0 3.046875l-3.296875 0zm0 14.140625l0 -12.453125l3.296875 0l0 12.453125l-3.296875 0zm17.527344 -8.765625l-3.25 0.578125q-0.15625 -0.96875 -0.75 -1.453125q-0.578125 -0.5 -1.5 -0.5q-1.234375 0 -1.96875 0.859375q-0.71875 0.84375 -0.71875 2.828125q0 2.21875 0.734375 3.140625q0.75 0.90625 2.0 0.90625q0.9375 0 1.53125 -0.53125q0.609375 -0.53125 0.84375 -1.828125l3.234375 0.546875q-0.5 2.21875 -1.9375 3.359375q-1.421875 1.140625 -3.828125 1.140625q-2.71875 0 -4.34375 -1.71875q-1.625 -1.734375 -1.625 -4.78125q0 -3.078125 1.625 -4.796875q1.625 -1.71875 4.40625 -1.71875q2.28125 0 3.609375 0.984375q1.34375 0.984375 1.9375 2.984375zm13.5625 8.765625l-6.140625 -17.1875l3.765625 0l4.34375 12.71875l4.21875 -12.71875l3.671875 0l-6.15625 17.1875l-3.703125 0zm17.496094 -3.96875l3.28125 0.5625q-0.640625 1.796875 -2.015625 2.75q-1.359375 0.9375 -3.40625 0.9375q-3.25 0 -4.796875 -2.125q-1.234375 -1.703125 -1.234375 -4.28125q0 -3.09375 1.609375 -4.84375q1.625 -1.765625 4.09375 -1.765625q2.78125 0 4.375 1.84375q1.609375 1.828125 1.546875 5.609375l-8.25 0q0.03125 1.46875 0.796875 2.28125q0.765625 0.8125 1.890625 0.8125q0.78125 0 1.296875 -0.421875q0.53125 -0.421875 0.8125 -1.359375zm0.1875 -3.328125q-0.046875 -1.421875 -0.75 -2.15625q-0.703125 -0.75 -1.703125 -0.75q-1.078125 0 -1.78125 0.78125q-0.703125 0.78125 -0.6875 2.125l4.921875 0zm16.800781 -1.46875l-3.25 0.578125q-0.15625 -0.96875 -0.75 -1.453125q-0.578125 -0.5 -1.5 -0.5q-1.234375 0 -1.96875 0.859375q-0.71875 0.84375 -0.71875 2.828125q0 2.21875 0.734375 3.140625q0.75 0.90625 2.0 0.90625q0.9375 0 1.53125 -0.53125q0.609375 -0.53125 0.84375 -1.828125l3.234375 0.546875q-0.5 2.21875 -1.9375 3.359375q-1.421875 1.140625 -3.828125 1.140625q-2.71875 0 -4.34375 -1.71875q-1.625 -1.734375 -1.625 -4.78125q0 -3.078125 1.625 -4.796875q1.625 -1.71875 4.40625 -1.71875q2.28125 0 3.609375 0.984375q1.34375 0.984375 1.9375 2.984375zm8.207031 -3.6875l0 2.625l-2.25 0l0 5.015625q0 1.53125 0.0625 1.78125q0.0625 0.25 0.28125 0.421875q0.234375 0.15625 0.5625 0.15625q0.453125 0 1.328125 -0.3125l0.28125 2.546875q-1.15625 0.5 -2.609375 0.5q-0.890625 0 -1.609375 -0.296875q-0.703125 -0.296875 -1.046875 -0.765625q-0.328125 -0.484375 -0.453125 -1.296875q-0.109375 -0.578125 -0.109375 -2.3125l0 -5.4375l-1.515625 0l0 -2.625l1.515625 0l0 -2.46875l3.3125 -1.921875l0 4.390625l2.25 0zm1.5234375 6.046875q0 -1.640625 0.796875 -3.171875q0.8125 -1.53125 2.296875 -2.34375q1.484375 -0.8125 3.3125 -0.8125q2.828125 0 4.625 1.84375q1.8125 1.828125 1.8125 4.625q0 2.828125 -1.828125 4.6875q-1.828125 1.859375 -4.59375 1.859375q-1.703125 0 -3.265625 -0.765625q-1.546875 -0.78125 -2.359375 -2.265625q-0.796875 -1.5 -0.796875 -3.65625zm3.375 0.1875q0 1.84375 0.875 2.828125q0.875 0.984375 2.171875 0.984375q1.28125 0 2.15625 -0.984375q0.875 -0.984375 0.875 -2.859375q0 -1.828125 -0.875 -2.8125q-0.875 -0.984375 -2.15625 -0.984375q-1.296875 0 -2.171875 0.984375q-0.875 0.984375 -0.875 2.84375zm15.191406 6.21875l-3.296875 0l0 -12.453125l3.0625 0l0 1.78125q0.78125 -1.265625 1.40625 -1.65625q0.640625 -0.40625 1.4375 -0.40625q1.125 0 2.15625 0.625l-1.015625 2.875q-0.828125 -0.546875 -1.546875 -0.546875q-0.6875 0 -1.171875 0.390625q-0.484375 0.375 -0.765625 1.375q-0.265625 1.0 -0.265625 4.171875l0 3.84375z" fill-rule="nonzero"/><path fill="#000000" fill-opacity="0.0" d="m346.2533 425.69815l77.82675 -111.33856" fill-rule="evenodd"/><path stroke="#274e13" stroke-width="1.0" stroke-linejoin="round" stroke-linecap="butt" d="m346.2533 425.69815l74.38925 -106.4209" fill-rule="evenodd"/><path fill="#274e13" stroke="#274e13" stroke-width="1.0" stroke-linecap="butt" d="m421.99634 320.22357l1.2461548 -4.665802l-3.9537354 2.7731934z" fill-rule="evenodd"/></g></svg>